<svg width="135" height="54" viewBox="0 0 135 54" fill="none" xmlns="http://www.w3.org/2000/svg">
    <rect width="135" height="54" fill="white" />
    <path
        d="M21.952 43.312V29.728L10 10H17.344L25.12 23.92H25.408L33.28 10H40.336L28.288 29.632V43.312H21.952Z"
        fill="black" />
    <path fill-rule="evenodd" clip-rule="evenodd"
        d="M28.288 30.9276L28.2698 30.9997H28.288V43.312H21.952V29.728L10 10H17.344L25.12 23.92H25.1262L28.3029 29.6078L28.288 29.632V30.9276Z"
        fill="#15F16D" />
    <path
        d="M49.3359 43.312V10H59.5119L66.0399 29.68L72.7599 10H82.6479V43.312H76.4559V16.144H76.1679L69.0159 36.592H62.8719L55.7679 16.144H55.4799V43.312H49.3359Z"
        fill="black" />
    <path fill-rule="evenodd" clip-rule="evenodd"
        d="M66.0473 29.68L68.4063 36.592H62.8719L55.7679 16.144H55.4799V43.312H49.3359V10H59.5119L66.0399 29.68H66.0473Z"
        fill="#15F16D" />
    <path
        d="M114.928 34.48L118 43.312H124.672L112.288 10H104.416L91.9355 43.312H98.4155L101.584 34.48L103.456 29.2L108.304 15.616L113.056 29.2L114.928 34.48Z"
        fill="black" />
    <path fill-rule="evenodd" clip-rule="evenodd"
        d="M110.282 10L108.304 15.616H108.304L103.456 29.2L101.584 34.48L98.4155 43.312H91.9355L104.416 10H110.282Z"
        fill="#15F16D" />
</svg>