<svg width="24" height="24" viewBox="0 0 24 24" fill="none" xmlns="http://www.w3.org/2000/svg">
<g id="Group 1171276287">
<path id="Vector" d="M19.1494 0H4.84694C4.21027 -4.62683e-08 3.57984 0.125431 2.99167 0.369128C2.40349 0.612825 1.86909 0.970013 1.41898 1.42029C0.968878 1.87056 0.611893 2.4051 0.368421 2.99337C0.124948 3.58165 -0.000242371 4.21212 3.52274e-07 4.84878V19.1549C3.05988e-07 19.7913 0.125383 20.4215 0.368987 21.0095C0.612591 21.5974 0.969643 22.1316 1.41975 22.5816C1.86985 23.0315 2.40419 23.3883 2.99223 23.6317C3.58028 23.8751 4.21051 24.0002 4.84694 24H19.1531C19.7897 24 20.4202 23.8746 21.0083 23.6309C21.5965 23.3872 22.1309 23.03 22.581 22.5797C23.0311 22.1294 23.3881 21.5949 23.6316 21.0066C23.8751 20.4184 24.0002 19.7879 24 19.1512V4.84878C23.9995 3.56264 23.4882 2.32933 22.5786 1.42006C21.669 0.510794 20.4355 -9.33259e-08 19.1494 0Z" fill="url(#paint0_linear_2306_2241)"/>
<path id="Vector_2" d="M12.122 19.3392L5.86517 15.7285V17.5339L12.122 21.1464L18.3789 17.5339V15.7285L12.122 19.3392Z" fill="white"/>
<path id="Vector_3" d="M18.3789 12.4355C18.2196 13.2002 17.9335 13.9328 17.5326 14.6031L17.5067 14.6437L17.3903 14.8137L16.5846 15.2775L12.122 17.8535L5.86517 14.2427V12.4355L12.122 16.0481L16.4885 13.5258C17.1257 12.2643 17.2631 10.8087 16.8732 9.45023C16.4833 8.09177 15.5949 6.93061 14.3857 6.19901L12.2883 5.16236V5.86825L7.3102 8.83776L8.09369 10.3549L8.10663 10.3844C8.13288 10.4502 8.17681 10.5074 8.23354 10.5498C8.29028 10.5922 8.35763 10.6181 8.42815 10.6246C8.4911 10.6339 8.55537 10.6248 8.61334 10.5986C8.67131 10.5724 8.72055 10.5301 8.75523 10.4768C8.94001 10.2126 9.14328 10.1793 9.49437 10.122L10.1374 10.0204C10.653 9.94093 11.3053 9.8356 11.8652 9.75799L12.924 9.59723C13.012 9.58231 13.0953 9.54695 13.1672 9.494C13.2391 9.44105 13.2976 9.37198 13.3379 9.29233C13.4266 9.06504 13.2936 8.69362 12.9683 8.27416L14.1029 7.39643C14.94 8.47743 14.8753 9.31266 14.6721 9.82267C14.5395 10.1344 14.3298 10.4073 14.0628 10.6157C13.7959 10.8242 13.4803 10.9614 13.1457 11.0145L12.0814 11.1771C11.3422 11.288 10.2206 11.4599 9.73644 11.5467C9.54847 11.736 9.32035 11.8807 9.06894 11.9699C8.81753 12.0591 8.54928 12.0907 8.28402 12.0623C7.96001 12.0302 7.6506 11.9116 7.38823 11.7188C7.12586 11.526 6.92019 11.2661 6.7928 10.9665L5.98713 9.40875L5.9742 9.37733C5.8534 9.08195 5.83527 8.75455 5.92272 8.44763C6.01017 8.14072 6.19814 7.87205 6.45649 7.68469L6.48421 7.66437L10.8525 5.05149V2.85254L15.0731 4.93877L15.0971 4.95171C16.3535 5.70395 17.3445 6.82868 17.9326 8.16977C18.5207 9.51086 18.6767 11.0018 18.3789 12.4355Z" fill="white"/>
</g>
<defs>
<linearGradient id="paint0_linear_2306_2241" x1="12" y1="-0.271635" x2="12" y2="21.1155" gradientUnits="userSpaceOnUse">
<stop offset="0.04" stop-color="#005CD9"/>
<stop offset="0.92" stop-color="#0081FF"/>
</linearGradient>
</defs>
</svg>
